# xmcd CD database file
#
# Track frame offsets:
#	150
#	14815
#	27823
#	43330
#	57747
#	68593
#	79388
#	98383
#	112218
#	129775
#	140285
#	156005
#	174760
#	187434
#
# Disc length: 2707 seconds
#
# Revision: 0
# Processed by: cddbd v1.5.1PL2 Copyright (c) Steve Scherf et al.
# Submitted via: CDex 1.51
#
DISCID=c10a910e
DTITLE=The Ordinary Boys - Over the Counter Culture (Japanese Version)
DYEAR=2004
DGENRE=Rock
TTITLE0=Over The Counter Culture
TTITLE1=The List Goes On
TTITLE2=Week In Week Out
TTITLE3=Talk Talk Talk
TTITLE4=Little Bitch
TTITLE5=Lies (bonus track)
TTITLE6=Settle Down
TTITLE7=Weekend Revolution
TTITLE8=Just a Song
TTITLE9=Maybe Someday
TTITLE10=Seaside
TTITLE11=So Charming (bonus track)
TTITLE12=In Awe of the Awful
TTITLE13=Robots and Monkeys
EXTD=YEAR: 2004
EXTT0=
EXTT1=
EXTT2=
EXTT3=
EXTT4=
EXTT5=
EXTT6=
EXTT7=
EXTT8=
EXTT9=
EXTT10=
EXTT11=
EXTT12=
EXTT13=
PLAYORDER=
